<svg width="341" height="137" viewBox="0 0 341 137" fill="none" xmlns="http://www.w3.org/2000/svg">
<path d="M0 72C0 36.1015 29.1015 7 65 7H276C311.899 7 341 36.1015 341 72V72C341 107.899 311.899 137 276 137H65C29.1015 137 0 107.899 0 72V72Z" fill="white"/>
<path d="M26.2982 71.0525L26.3112 67.4161L55.6352 52.8476L55.6144 58.6657L33.1228 69.2227L33.3059 68.8612L33.3026 69.7703L33.1221 69.4045L55.5365 80.4838L55.5157 86.3019L26.2982 71.0525ZM79.2419 88.0324L64.6974 87.8633L72.5904 41.408L87.4076 41.5803C91.9224 41.6328 95.6385 42.623 98.5558 44.551C101.488 46.4791 103.524 49.2074 104.663 52.7359C105.817 56.2646 105.976 60.4636 105.14 65.3328C104.336 70.1115 102.791 74.2073 100.506 77.6203C98.2361 81.0182 95.3027 83.6206 91.7054 85.4273C88.1233 87.219 83.9688 88.0874 79.2419 88.0324ZM71.1921 82.9386L79.4415 83.0346C83.2898 83.0793 86.6104 82.3604 89.4035 80.8776C92.2118 79.3951 94.4769 77.2623 96.1989 74.4792C97.9361 71.6962 99.1297 68.3842 99.7798 64.5432C100.429 60.8536 100.38 57.6787 99.632 55.0184C98.8991 52.3431 97.4444 50.2807 95.2678 48.8311C93.1064 47.3665 90.2077 46.6131 86.5716 46.5708L77.3677 46.4637L71.1921 82.9386ZM124.509 89.2862C121.161 89.2473 118.398 88.4727 116.222 86.9625C114.046 85.4371 112.531 83.3285 111.677 80.6367C110.823 77.9297 110.697 74.7917 111.301 71.2229C111.905 67.654 113.09 64.5162 114.857 61.8093C116.625 59.0874 118.821 56.9765 121.448 55.4767C124.075 53.9617 126.956 53.2225 130.092 53.259C131.91 53.2801 133.659 53.6035 135.338 54.2291C137.018 54.8547 138.469 55.8565 139.691 57.2344C140.914 58.5971 141.763 60.3949 142.24 62.6278C142.717 64.8607 142.677 67.6028 142.12 70.854L141.748 73.1225L114.841 72.8095L115.585 68.1817L137.038 68.4312C137.393 66.4655 137.309 64.7069 136.784 63.1553C136.274 61.6039 135.377 60.3737 134.092 59.4648C132.823 58.556 131.211 58.0903 129.257 58.0676C127.242 58.0442 125.361 58.5678 123.615 59.6384C121.869 60.6939 120.409 62.0406 119.237 63.6785C118.064 65.3013 117.331 66.9595 117.037 68.6531L116.387 72.6457C115.922 75.5343 115.982 77.8381 116.567 79.5571C117.167 81.2763 118.215 82.5234 119.712 83.2984C121.21 84.0582 123.087 84.4513 125.344 84.4776C126.784 84.4943 128.11 84.3128 129.323 83.9329C130.537 83.5379 131.622 82.9445 132.58 82.1525C133.537 81.3455 134.344 80.3397 134.999 79.1351L139.903 80.6467C139.063 82.3946 137.884 83.9264 136.364 85.2421C134.859 86.5428 133.098 87.5527 131.081 88.2717C129.078 88.9757 126.888 89.3139 124.509 89.2862ZM180.763 54.3028L161.912 88.9939L156.458 88.9305L149.492 53.9391L155.083 54.0042L159.983 81.8803L160.347 81.8845L174.718 54.2325L180.763 54.3028ZM188.716 89.6693C187.595 89.6562 186.634 89.2435 185.834 88.4312C185.034 87.6188 184.636 86.652 184.64 85.5308C184.644 84.4096 185.049 83.4522 185.855 82.6585C186.661 81.8648 187.624 81.4745 188.745 81.4875C189.866 81.5006 190.827 81.9133 191.627 82.7256C192.427 83.538 192.825 84.5048 192.821 85.626C192.819 86.3684 192.627 87.048 192.246 87.6648C191.88 88.2818 191.386 88.7761 190.763 89.1476C190.156 89.5042 189.474 89.6781 188.716 89.6693ZM202.16 89.462L196.251 89.3933L221.234 43.1367L227.052 43.2044L236.248 89.8584L230.34 89.7897L223.116 50.5225L222.753 50.5183L202.16 89.462ZM207.406 71.3405L231.223 71.6175L230.387 76.608L206.57 76.331L207.406 71.3405ZM243.146 89.9387L249.088 55.0975L254.451 55.1598L248.509 90.001L243.146 89.9387ZM253.427 49.2386C252.382 49.2265 251.481 48.8599 250.726 48.139C249.987 47.4182 249.619 46.5579 249.622 45.5579C249.626 44.5579 250 43.7061 250.745 43.0027C251.505 42.2994 252.408 41.9538 253.453 41.9659C254.498 41.9781 255.391 42.3445 256.131 43.0653C256.886 43.7862 257.261 44.6467 257.258 45.6467C257.254 46.6467 256.873 47.4983 256.112 48.2016C255.368 48.9051 254.472 49.2508 253.427 49.2386ZM277.868 41.6135L262.67 97.166L257.762 97.1089L272.96 41.5564L277.868 41.6135ZM314.926 74.4093L285.602 88.9778L285.623 83.1597L308.115 72.6027L307.932 72.9642L307.935 72.0552L308.116 72.4209L285.701 61.3417L285.722 55.5235L314.939 70.7729L314.926 74.4093Z" fill="#020202"/>
</svg>
